<svg width="256" height="256" xmlns="http://www.w3.org/2000/svg" xmlns:xlink="http://www.w3.org/1999/xlink">
  <defs/>
  <g>
    <path stroke="none" fill="#000000" d="M150.8 67.4 Q128 44.6 105 67.6 L67.4 105.2 Q44.6 128 67.4 150.8 L105.2 188.6 Q128 211.4 150.8 188.6 L188.4 151 Q211.4 128 188.6 105.2 L150.8 67.4 M256 72 L256 184.2 Q244.6 184 233 195.6 L195.4 233.2 Q184 244.6 184 256 L72 256 Q72 244.6 60.6 233.2 L22.8 195.4 Q11.4 184 0 184 L0 72 Q11.4 72 22.8 60.6 L60.4 23 Q72 11.4 72 0 L184 0 Q184 11.4 195.4 22.8 L233.2 60.6 Q244.6 72 256 72"/>
    <path stroke="none" fill="#FFFFFF" d="M256 72 Q244.6 72 233.2 60.6 L195.4 22.8 Q184 11.4 184 0 L256 0 256 72 M150.8 67.4 L188.6 105.2 Q211.4 128 188.4 151 L150.8 188.6 Q128 211.4 105.2 188.6 L67.4 150.8 Q44.6 128 67.4 105.2 L105 67.6 Q128 44.6 150.8 67.4 M256 184.2 L256 256 184 256 Q184 244.6 195.4 233.2 L233 195.6 Q244.6 184 256 184.2 M72 256 L0 256 0 184 Q11.4 184 22.8 195.4 L60.6 233.2 Q72 244.6 72 256 M0 72 L0 0 72 0 Q72 11.4 60.4 23 L22.8 60.6 Q11.4 72 0 72"/>
  </g>
</svg>