<svg width="256" height="256" xmlns="http://www.w3.org/2000/svg" xmlns:xlink="http://www.w3.org/1999/xlink">
  <defs/>
  <g>
    <path stroke="none" fill="#FFFFFF" d="M220.2 37.4 L215.4 55.4 233.6 60.6 238.4 42.4 220.2 37.4 M169.8 67.6 L177 94 203.6 87 196.4 60.6 169.8 67.6 M192 0 L256 0 256 64 64 256 0 256 0 192 192 0 M256 192 L256 256 192 256 256 192 M0 64 L0 0 64 0 0 64 M216 174.8 L234.2 179.8 229.4 198 211.2 192.8 216 174.8 M21.4 94.4 L48 87.4 55.2 113.8 28.6 120.8 21.4 94.4 M12 125 L30.2 130 25.4 148.2 7.2 143 12 125"/>
    <path stroke="none" fill="#000000" d="M12 125 L7.2 143 25.4 148.2 30.2 130 12 125 M169.8 67.6 L196.4 60.6 203.6 87 177 94 169.8 67.6 M220.2 37.4 L238.4 42.4 233.6 60.6 215.4 55.4 220.2 37.4 M256 64 L256 192 192 256 64 256 256 64 M0 192 L0 64 64 0 192 0 0 192 M216 174.8 L211.2 192.8 229.4 198 234.2 179.8 216 174.8 M21.4 94.4 L28.6 120.8 55.2 113.8 48 87.4 21.4 94.4"/>
  </g>
</svg>