<svg width="256" height="256" xmlns="http://www.w3.org/2000/svg" xmlns:xlink="http://www.w3.org/1999/xlink">
  <defs/>
  <g>
    <path stroke="none" fill="#FFFFFF" d="M192 0 L256 0 256 64 64 256 0 256 0 192 192 0 M256 192 L256 256 192 256 256 192 M0 64 L0 0 64 0 0 64 M119 213.4 L137.2 218.4 132.4 236.6 114.2 231.4 119 213.4 M101 18.8 L127.6 11.8 134.8 38.2 108.2 45.2 101 18.8 M86.2 49.4 L104.4 54.4 99.6 72.6 81.4 67.4 86.2 49.4 M22.8 214.2 L30 240.6 56.6 233.6 49.4 207.2 22.8 214.2 M72.2 184 L67.4 202 85.6 207.2 90.4 189 72.2 184"/>
    <path stroke="none" fill="#000000" d="M72.2 184 L90.4 189 85.6 207.2 67.4 202 72.2 184 M256 64 L256 192 192 256 64 256 256 64 M0 192 L0 64 64 0 192 0 0 192 M119 213.4 L114.2 231.4 132.4 236.6 137.2 218.4 119 213.4 M86.2 49.4 L81.4 67.4 99.6 72.6 104.4 54.4 86.2 49.4 M101 18.8 L108.2 45.2 134.8 38.2 127.6 11.8 101 18.8 M22.8 214.2 L49.4 207.2 56.6 233.6 30 240.6 22.8 214.2"/>
  </g>
</svg>