<svg width="256" height="256" xmlns="http://www.w3.org/2000/svg" xmlns:xlink="http://www.w3.org/1999/xlink">
  <defs/>
  <g>
    <path stroke="none" fill="#FFFFFF" d="M256 19 L256 31.4 Q255.8 25.8 254.2 21 L256 19 M256 33.2 L256 77.4 Q247.2 80 237.6 80 229.8 80 223 78.4 L246.6 54.6 Q255.6 45.6 256 33.2 M256 178.6 L256 236.8 236.6 256 178.6 256 Q182.8 242.2 194 231 L230.8 194 Q242 182.8 256 178.6 M77.4 256 L33.2 256 Q45.6 255.6 54.6 246.6 L78.2 223 Q79.8 229.8 80 237.4 L80 238 Q80 247.6 77.4 256 M31.4 256 L19.2 256 21 254.2 Q25.8 255.8 31.4 256 M0 236.8 L0 224.8 Q0.2 230.2 1.8 235 L0 236.8 M0 222.8 L0 178.6 Q8.6 176 18.4 176 26 176 33.2 177.8 L9.4 201.4 Q0.4 210.4 0 222.8 M0 77.4 L0 19 19.2 0 77.4 0 Q73 13.8 61.8 25 L25 62 Q13.8 73.2 0 77.4 M178.6 0 L222.8 0 Q210.4 0.4 201.4 9.4 L177.6 33.2 Q176 26.4 176 18.8 L176 18.2 Q176 8.6 178.6 0 M224.8 0 L236.6 0 234.8 1.8 Q230 0.2 224.8 0 M82 146 Q87.8 140 96 140 104.2 140 110.2 146 116 151.8 116 160 116 168.2 110.2 174.2 L46.2 238.2 Q40.2 244 32 244 23.8 244 18 238.2 12 232.2 12 224 12 215.8 18 210 L82 146 M96 128 Q82.8 128 73.4 137.4 L49.6 161.2 Q48 154.4 48 146.8 L48 146.2 Q47.8 121.2 66 103 L102.8 66 Q120.8 48 146.4 48 154 48 161.2 49.8 L137.4 73.4 Q128 82.8 128 96 128 101.8 129.8 107 L106.8 129.8 Q101.8 128 96 128 M160 128 Q173.2 128 182.6 118.6 L206.2 95 Q207.8 101.8 208 109.4 L208 110 Q207.8 135 189.8 153 L153 190 Q134.6 208.2 109.6 208 101.8 208 95 206.4 L118.6 182.6 Q128 173.2 128 160 128 154 126.2 149 L149 126.2 Q154.2 128 160 128 M210 18 Q215.8 12 224 12 232.2 12 238.2 18 244 23.8 244 32 244 40.2 238.2 46.2 L174.2 110.2 Q168.2 116 160 116 151.8 116 146 110.2 140 104.2 140 96 140 87.8 146 82 L210 18"/>
    <path stroke="none" fill="#000000" d="M210 18 L146 82 Q140 87.8 140 96 140 104.2 146 110.2 151.8 116 160 116 168.2 116 174.2 110.2 L238.2 46.2 Q244 40.2 244 32 244 23.8 238.2 18 232.2 12 224 12 215.8 12 210 18 M256 31.4 L256 33.2 Q255.6 45.6 246.6 54.6 L223 78.4 Q229.8 80 237.6 80 247.2 80 256 77.4 L256 178.6 Q242 182.8 230.8 194 L194 231 Q182.8 242.2 178.6 256 L77.4 256 Q80 247.6 80 238 L80 237.4 Q79.8 229.8 78.2 223 L54.6 246.6 Q45.6 255.6 33.2 256 L31.4 256 Q25.8 255.8 21 254.2 L19.2 256 0 256 0 236.8 1.8 235 Q0.2 230.2 0 224.8 L0 222.8 Q0.4 210.4 9.4 201.4 L33.2 177.8 Q26 176 18.4 176 8.6 176 0 178.6 L0 77.4 Q13.8 73.2 25 62 L61.8 25 Q73 13.8 77.4 0 L178.6 0 Q176 8.6 176 18.2 L176 18.8 Q176 26.4 177.6 33.2 L201.4 9.4 Q210.4 0.4 222.8 0 L224.8 0 Q230 0.2 234.8 1.8 L236.6 0 256 0 256 19 254.2 21 Q255.8 25.8 256 31.4 M256 236.8 L256 256 236.6 256 256 236.8 M0 19 L0 0 19.2 0 0 19 M160 128 Q154.2 128 149 126.2 L126.2 149 Q128 154 128 160 128 173.2 118.6 182.6 L95 206.4 Q101.8 208 109.6 208 134.6 208.2 153 190 L189.8 153 Q207.8 135 208 110 L208 109.4 Q207.8 101.8 206.2 95 L182.6 118.6 Q173.2 128 160 128 M96 128 Q101.8 128 106.8 129.8 L129.8 107 Q128 101.8 128 96 128 82.8 137.4 73.4 L161.2 49.8 Q154 48 146.4 48 120.8 48 102.8 66 L66 103 Q47.8 121.2 48 146.2 L48 146.8 Q48 154.4 49.6 161.2 L73.4 137.4 Q82.8 128 96 128 M82 146 L18 210 Q12 215.8 12 224 12 232.2 18 238.2 23.8 244 32 244 40.2 244 46.2 238.2 L110.2 174.2 Q116 168.2 116 160 116 151.8 110.2 146 104.2 140 96 140 87.8 140 82 146"/>
  </g>
</svg>