<svg width="256" height="256" xmlns="http://www.w3.org/2000/svg" xmlns:xlink="http://www.w3.org/1999/xlink">
  <defs/>
  <g>
    <path stroke="none" fill="#000000" d="M256 26.6 Q244.6 26 237.2 18.2 229.8 11 229.8 0.2 L229.8 0 256 0 256 26.6 M192.2 0 L192.4 33 Q192 34.8 193.6 36 194.8 37.8 196 39 L252 71.6 Q254 72.8 256 72.6 L256 183.8 255.8 183.8 Q253.8 183.4 252.6 184.4 L196 217 Q194.4 218.2 193.6 219.8 192 221.4 192 223.6 L192.2 256 64 256 63.8 223.2 Q63.8 221.2 63.2 220 62 218.2 60.2 217 L3.6 184 0 183.8 0 72.6 Q1.8 72.6 3 71.4 L60.2 39 Q62 37.8 63 36.2 63.8 34.6 64 32.8 L64 0 192.2 0 M154.6 128.2 Q154.4 139.2 146.4 146.6 139 154.2 128.4 154.6 116.8 154.2 109.2 146.2 101.8 139 101.8 128.2 101.8 116.8 109.2 109.4 117.8 101.8 128.4 102 139 101.8 146 109.4 154.4 117 154.6 128.2 M191.8 95.2 Q191.8 93.2 191.2 92 190 90.2 188.2 89 L131.6 56 127.8 55.8 Q125.8 55.4 124.6 56.4 96.4 72.8 68 89 66.4 90.2 65.6 91.8 64 93.4 64 95.6 L64.4 161 Q64 162.8 65.6 164 66.8 165.8 68 167 L124 199.6 Q126 200.8 128 200.6 129.8 200.6 131 199.4 L188.2 167 Q190 165.8 191 164.2 191.8 162.6 192 160.8 L191.8 95.2 M256 230 L256 256 229.8 256 Q229.8 244.8 237.2 237.4 245.6 230 256 230 M26.6 256 L0 256 0 230 0.4 230 Q11 229.8 18 237.4 26.4 245 26.6 256 M0 26.6 L0 0 26.6 0 26.6 0.2 Q26.4 11.2 18.4 18.6 11 26.2 0.4 26.6 L0 26.6"/>
    <path stroke="none" fill="#FFFFFF" d="M0 26.6 L0.4 26.6 Q11 26.2 18.4 18.6 26.4 11.2 26.6 0.2 L26.6 0 64 0 64 32.8 Q63.8 34.6 63 36.2 62 37.8 60.2 39 L3 71.4 Q1.8 72.6 0 72.6 L0 26.6 M229.8 0 L229.8 0.2 Q229.8 11 237.2 18.2 244.6 26 256 26.6 L256 72.6 Q254 72.8 252 71.6 L196 39 Q194.8 37.8 193.6 36 192 34.8 192.4 33 L192.2 0 229.8 0 M191.8 95.2 L192 160.8 Q191.8 162.6 191 164.2 190 165.8 188.2 167 L131 199.4 Q129.8 200.6 128 200.6 126 200.8 124 199.6 L68 167 Q66.8 165.8 65.6 164 64 162.8 64.4 161 L64 95.6 Q64 93.4 65.6 91.8 66.4 90.2 68 89 96.4 72.8 124.6 56.4 125.8 55.4 127.8 55.8 L131.6 56 188.2 89 Q190 90.2 191.2 92 191.8 93.2 191.8 95.2 M154.6 128.2 Q154.4 117 146 109.4 139 101.8 128.4 102 117.8 101.8 109.2 109.4 101.8 116.8 101.8 128.2 101.8 139 109.2 146.2 116.8 154.2 128.4 154.6 139 154.2 146.4 146.6 154.4 139.2 154.6 128.2 M192.2 256 L192 223.6 Q192 221.4 193.6 219.8 194.4 218.2 196 217 L252.6 184.4 Q253.8 183.4 255.8 183.8 L256 183.8 256 230 Q245.6 230 237.2 237.4 229.8 244.8 229.8 256 L192.2 256 M64 256 L26.6 256 Q26.4 245 18 237.4 11 229.8 0.4 230 L0 230 0 183.8 3.6 184 60.2 217 Q62 218.2 63.2 220 63.8 221.2 63.8 223.2 L64 256"/>
  </g>
</svg>